name Walk5.mot
datacolumns 19
datarows 17
range 2.89300000 2.90900000
endheader

                time	   L_ground_force_vx	   L_ground_force_vy	   L_ground_force_vz	   L_ground_force_px	   L_ground_force_py	   L_ground_force_pz	   R_ground_force_vx	   R_ground_force_vy	   R_ground_force_vz	   R_ground_force_px	   R_ground_force_py	   R_ground_force_pz	   L_ground_torque_x	   L_ground_torque_y	   L_ground_torque_z	   R_ground_torque_x	   R_ground_torque_y	   R_ground_torque_z	
          2.89300000	         18.43172883	        971.13430080	         79.80421889	         -0.33299225	          0.00000000	         -0.09229801	         -0.02725137	          0.35211149	          0.01821573	          0.00009302	          0.00000000	          0.00014399	          0.00000000	          0.54241186	          0.00000000	          0.00000000	          0.00240952	          0.00000000	
          2.89400000	         18.69135514	        971.05900526	         79.95126328	         -0.33253995	          0.00000000	         -0.09231396	         -0.02950289	          0.36926040	          0.01866790	          0.00009619	          0.00000000	          0.00014834	          0.00000000	          0.54999741	          0.00000000	          0.00000000	          0.00275662	          0.00000000	
          2.89500000	         18.95284367	        970.97282292	         80.09597754	         -0.33208702	          0.00000000	         -0.09232828	         -0.03184179	          0.38647785	          0.01908499	          0.00009925	          0.00000000	          0.00015248	          0.00000000	          0.55743393	          0.00000000	          0.00000000	          0.00312460	          0.00000000	
          2.89600000	         19.21643628	        970.87708965	         80.23824657	         -0.33163364	          0.00000000	         -0.09234095	         -0.03426654	          0.40369911	          0.01946202	          0.00010219	          0.00000000	          0.00015638	          0.00000000	          0.56470730	          0.00000000	          0.00000000	          0.00351386	          0.00000000	
          2.89700000	         19.48238375	        970.77313744	         80.37796630	         -0.33118001	          0.00000000	         -0.09235197	         -0.03677508	          0.42085343	          0.01979371	          0.00010497	          0.00000000	          0.00016000	          0.00000000	          0.57180277	          0.00000000	          0.00000000	          0.00392479	          0.00000000	
          2.89800000	         19.75094630	        970.66228883	         80.51504312	         -0.33072634	          0.00000000	         -0.09236134	         -0.03936485	          0.43786372	          0.02007448	          0.00010759	          0.00000000	          0.00016329	          0.00000000	          0.57870504	          0.00000000	          0.00000000	          0.00435769	          0.00000000	
          2.89900000	         20.02239462	        970.54585212	         80.64939242	         -0.33027281	          0.00000000	         -0.09236907	         -0.04203270	          0.45464635	          0.02029843	          0.00011000	          0.00000000	          0.00016621	          0.00000000	          0.58539848	          0.00000000	          0.00000000	          0.00481282	          0.00000000	
          2.90000000	         20.29701055	        970.42511756	         80.78093652	         -0.32981964	          0.00000000	         -0.09237516	         -0.04477488	          0.47111087	          0.02045936	          0.00011218	          0.00000000	          0.00016872	          0.00000000	          0.59186770	          0.00000000	          0.00000000	          0.00529037	          0.00000000	
          2.90100000	         20.57508666	        970.30135418	         80.90960254	         -0.32936703	          0.00000000	         -0.09237961	         -0.04758695	          0.48715970	          0.02055074	          0.00011410	          0.00000000	          0.00017077	          0.00000000	          0.59809814	          0.00000000	          0.00000000	          0.00579045	          0.00000000	
          2.90200000	         20.85692435	        970.17580671	         81.03532100	         -0.32891518	          0.00000000	         -0.09238244	         -0.05046380	          0.50268795	          0.02056575	          0.00011572	          0.00000000	          0.00017230	          0.00000000	          0.60407669	          0.00000000	          0.00000000	          0.00631308	          0.00000000	
          2.90300000	         21.14283086	        970.04969262	         81.15802545	         -0.32846430	          0.00000000	         -0.09238367	         -0.05339958	          0.51758311	          0.02049722	          0.00011703	          0.00000000	          0.00017326	          0.00000000	          0.60979213	          0.00000000	          0.00000000	          0.00685821	          0.00000000	
          2.90400000	         21.43311584	        969.92419915	         81.27765338	         -0.32801460	          0.00000000	         -0.09238333	         -0.05638762	          0.53172482	          0.02033767	          0.00011796	          0.00000000	          0.00017359	          0.00000000	          0.61523506	          0.00000000	          0.00000000	          0.00742566	          0.00000000	
          2.90500000	         21.72808853	        969.80048087	         81.39414798	         -0.32756628	          0.00000000	         -0.09238144	         -0.05942046	          0.54498468	          0.02007930	          0.00011850	          0.00000000	          0.00017324	          0.00000000	          0.62039744	          0.00000000	          0.00000000	          0.00801518	          0.00000000	
          2.90600000	         22.02805598	        969.67965771	         81.50745996	         -0.32711955	          0.00000000	         -0.09237804	         -0.06248972	          0.55722598	          0.01971399	          0.00011860	          0.00000000	          0.00017214	          0.00000000	          0.62527182	          0.00000000	          0.00000000	          0.00862638	          0.00000000	
          2.90700000	         22.33332237	        969.56281355	         81.61754887	         -0.32667462	          0.00000000	         -0.09237317	         -0.06558611	          0.56830351	          0.01923332	          0.00011822	          0.00000000	          0.00017022	          0.00000000	          0.62985046	          0.00000000	          0.00000000	          0.00925875	          0.00000000	
          2.90800000	         22.64418900	        969.45099527	         81.72438344	         -0.32623169	          0.00000000	         -0.09236684	         -0.06869938	          0.57806337	          0.01862856	          0.00011731	          0.00000000	          0.00016743	          0.00000000	          0.63412496	          0.00000000	          0.00000000	          0.00991165	          0.00000000	
          2.90900000	         22.96095411	        969.34521206	         81.82794093	         -0.32579097	          0.00000000	         -0.09235910	         -0.07181822	          0.58634282	          0.01789066	          0.00011584	          0.00000000	          0.00016368	          0.00000000	          0.63808617	          0.00000000	          0.00000000	          0.01058428	          0.00000000	
